<svg xmlns="http://www.w3.org/2000/svg" viewBox="0 0 128 103" id="el_MehLzp9MX">
  <style>
    @-webkit-keyframes kf_el_9N1UVBRDZx_an_Cl6QGldi5{0%{-webkit-transform: translate(64.82915115356445px, 51.39828872680664px) scale(1, 1) translate(-64.82915115356445px, -51.39828872680664px);transform: translate(64.82915115356445px, 51.39828872680664px) scale(1, 1) translate(-64.82915115356445px, -51.39828872680664px);}24.44%{-webkit-transform: translate(64.82915115356445px, 51.39828872680664px) scale(0.8, 0.8) translate(-64.82915115356445px, -51.39828872680664px);transform: translate(64.82915115356445px, 51.39828872680664px) scale(0.8, 0.8) translate(-64.82915115356445px, -51.39828872680664px);}50%{-webkit-transform: translate(64.82915115356445px, 51.39828872680664px) scale(1, 1) translate(-64.82915115356445px, -51.39828872680664px);transform: translate(64.82915115356445px, 51.39828872680664px) scale(1, 1) translate(-64.82915115356445px, -51.39828872680664px);}75.56%{-webkit-transform: translate(64.82915115356445px, 51.39828872680664px) scale(0.8, 0.8) translate(-64.82915115356445px, -51.39828872680664px);transform: translate(64.82915115356445px, 51.39828872680664px) scale(0.8, 0.8) translate(-64.82915115356445px, -51.39828872680664px);}100%{-webkit-transform: translate(64.82915115356445px, 51.39828872680664px) scale(1, 1) translate(-64.82915115356445px, -51.39828872680664px);transform: translate(64.82915115356445px, 51.39828872680664px) scale(1, 1) translate(-64.82915115356445px, -51.39828872680664px);}}@keyframes kf_el_9N1UVBRDZx_an_Cl6QGldi5{0%{-webkit-transform: translate(64.82915115356445px, 51.39828872680664px) scale(1, 1) translate(-64.82915115356445px, -51.39828872680664px);transform: translate(64.82915115356445px, 51.39828872680664px) scale(1, 1) translate(-64.82915115356445px, -51.39828872680664px);}24.44%{-webkit-transform: translate(64.82915115356445px, 51.39828872680664px) scale(0.8, 0.8) translate(-64.82915115356445px, -51.39828872680664px);transform: translate(64.82915115356445px, 51.39828872680664px) scale(0.8, 0.8) translate(-64.82915115356445px, -51.39828872680664px);}50%{-webkit-transform: translate(64.82915115356445px, 51.39828872680664px) scale(1, 1) translate(-64.82915115356445px, -51.39828872680664px);transform: translate(64.82915115356445px, 51.39828872680664px) scale(1, 1) translate(-64.82915115356445px, -51.39828872680664px);}75.56%{-webkit-transform: translate(64.82915115356445px, 51.39828872680664px) scale(0.8, 0.8) translate(-64.82915115356445px, -51.39828872680664px);transform: translate(64.82915115356445px, 51.39828872680664px) scale(0.8, 0.8) translate(-64.82915115356445px, -51.39828872680664px);}100%{-webkit-transform: translate(64.82915115356445px, 51.39828872680664px) scale(1, 1) translate(-64.82915115356445px, -51.39828872680664px);transform: translate(64.82915115356445px, 51.39828872680664px) scale(1, 1) translate(-64.82915115356445px, -51.39828872680664px);}}@-webkit-keyframes kf_el_9N1UVBRDZx_an_r_SVNJOxh{0%{-webkit-transform: translate(64.82915115356445px, 51.39828872680664px) rotate(0deg) translate(-64.82915115356445px, -51.39828872680664px);transform: translate(64.82915115356445px, 51.39828872680664px) rotate(0deg) translate(-64.82915115356445px, -51.39828872680664px);}24.44%{-webkit-transform: translate(64.82915115356445px, 51.39828872680664px) rotate(30deg) translate(-64.82915115356445px, -51.39828872680664px);transform: translate(64.82915115356445px, 51.39828872680664px) rotate(30deg) translate(-64.82915115356445px, -51.39828872680664px);}50%{-webkit-transform: translate(64.82915115356445px, 51.39828872680664px) rotate(0deg) translate(-64.82915115356445px, -51.39828872680664px);transform: translate(64.82915115356445px, 51.39828872680664px) rotate(0deg) translate(-64.82915115356445px, -51.39828872680664px);}75.56%{-webkit-transform: translate(64.82915115356445px, 51.39828872680664px) rotate(-30deg) translate(-64.82915115356445px, -51.39828872680664px);transform: translate(64.82915115356445px, 51.39828872680664px) rotate(-30deg) translate(-64.82915115356445px, -51.39828872680664px);}100%{-webkit-transform: translate(64.82915115356445px, 51.39828872680664px) rotate(0deg) translate(-64.82915115356445px, -51.39828872680664px);transform: translate(64.82915115356445px, 51.39828872680664px) rotate(0deg) translate(-64.82915115356445px, -51.39828872680664px);}}@keyframes kf_el_9N1UVBRDZx_an_r_SVNJOxh{0%{-webkit-transform: translate(64.82915115356445px, 51.39828872680664px) rotate(0deg) translate(-64.82915115356445px, -51.39828872680664px);transform: translate(64.82915115356445px, 51.39828872680664px) rotate(0deg) translate(-64.82915115356445px, -51.39828872680664px);}24.44%{-webkit-transform: translate(64.82915115356445px, 51.39828872680664px) rotate(30deg) translate(-64.82915115356445px, -51.39828872680664px);transform: translate(64.82915115356445px, 51.39828872680664px) rotate(30deg) translate(-64.82915115356445px, -51.39828872680664px);}50%{-webkit-transform: translate(64.82915115356445px, 51.39828872680664px) rotate(0deg) translate(-64.82915115356445px, -51.39828872680664px);transform: translate(64.82915115356445px, 51.39828872680664px) rotate(0deg) translate(-64.82915115356445px, -51.39828872680664px);}75.56%{-webkit-transform: translate(64.82915115356445px, 51.39828872680664px) rotate(-30deg) translate(-64.82915115356445px, -51.39828872680664px);transform: translate(64.82915115356445px, 51.39828872680664px) rotate(-30deg) translate(-64.82915115356445px, -51.39828872680664px);}100%{-webkit-transform: translate(64.82915115356445px, 51.39828872680664px) rotate(0deg) translate(-64.82915115356445px, -51.39828872680664px);transform: translate(64.82915115356445px, 51.39828872680664px) rotate(0deg) translate(-64.82915115356445px, -51.39828872680664px);}}#el_MehLzp9MX *{-webkit-animation-duration: 3s;animation-duration: 3s;-webkit-animation-iteration-count: 1;animation-iteration-count: 1;-webkit-animation-timing-function: cubic-bezier(0, 0, 1, 1);animation-timing-function: cubic-bezier(0, 0, 1, 1);}#el_9N1UVBRDZx{-webkit-transform: translate(-36.458px, -55.693px);transform: translate(-36.458px, -55.693px);}#el_2d_G0XKU6e{-webkit-transform: translate(36.473px, 14.115px);transform: translate(36.473px, 14.115px);fill: #f1352b;}#el_Nu-ptJ8cGJ{-webkit-transform: translate(129.596px, 71.848px);transform: translate(129.596px, 71.848px);fill: #fff;}#el_iJbLZnJx7i{-webkit-transform: translate(129.596px, 93.91px);transform: translate(129.596px, 93.91px);fill: #fff;}#el_KminRgEUFf{-webkit-transform: translate(152.099px, 82.879px) rotate(90deg);transform: translate(152.099px, 82.879px) rotate(90deg);fill: #fff;}#el_56Uvq8c3Ak{-webkit-transform: translate(130.037px, 82.879px) rotate(90deg);transform: translate(130.037px, 82.879px) rotate(90deg);fill: #fff;}#el_HFQ4tDmXXE{-webkit-transform: translate(34.615px, 11.451px);transform: translate(34.615px, 11.451px);fill: #fff;}#el_z5eKB_I9Tf{-webkit-transform: translate(72.544px, 156.755px);transform: translate(72.544px, 156.755px);fill: #fff;}#el_9N1UVBRDZx_an_r_SVNJOxh{-webkit-animation-fill-mode: backwards;animation-fill-mode: backwards;-webkit-transform: translate(64.82915115356445px, 51.39828872680664px) rotate(0deg) translate(-64.82915115356445px, -51.39828872680664px);transform: translate(64.82915115356445px, 51.39828872680664px) rotate(0deg) translate(-64.82915115356445px, -51.39828872680664px);-webkit-animation-name: kf_el_9N1UVBRDZx_an_r_SVNJOxh;animation-name: kf_el_9N1UVBRDZx_an_r_SVNJOxh;-webkit-animation-timing-function: cubic-bezier(0, 0, 1, 1);animation-timing-function: cubic-bezier(0, 0, 1, 1);}#el_9N1UVBRDZx_an_Cl6QGldi5{-webkit-animation-fill-mode: backwards;animation-fill-mode: backwards;-webkit-transform: translate(64.82915115356445px, 51.39828872680664px) scale(1, 1) translate(-64.82915115356445px, -51.39828872680664px);transform: translate(64.82915115356445px, 51.39828872680664px) scale(1, 1) translate(-64.82915115356445px, -51.39828872680664px);-webkit-animation-name: kf_el_9N1UVBRDZx_an_Cl6QGldi5;animation-name: kf_el_9N1UVBRDZx_an_Cl6QGldi5;-webkit-animation-timing-function: cubic-bezier(0, 0, 1, 1);animation-timing-function: cubic-bezier(0, 0, 1, 1);}
    #el_9N1UVBRDZx_an_r_SVNJOxh, #el_9N1UVBRDZx_an_Cl6QGldi5 {
      animation-delay: 2s;
      animation-iteration-count: infinite;
      animation-direction: forward;
    }
  </style>
  <g id="el_9N1UVBRDZx_an_r_SVNJOxh" data-animator-group="true" data-animator-type="1">
    <g id="el_9N1UVBRDZx_an_Cl6QGldi5" data-animator-group="true" data-animator-type="2">
      <g id="el_9N1UVBRDZx" data-name="7">
        <path id="el_2d_G0XKU6e" d="M128.205,108.807l-4.9-22.191a27.451,27.451,0,0,0,2.444-11.389,27.769,27.769,0,0,0-11.529-22.51V50.254a8.686,8.686,0,0,0-8.676-8.676H93.5a8.691,8.691,0,0,0-8.222,5.905H42.637a8.691,8.691,0,0,0-8.222-5.905H22.365a8.686,8.686,0,0,0-8.676,8.676v1.071a27.742,27.742,0,0,0-9.72,38.158l-3.53,16.01a18.817,18.817,0,0,0,13.526,22.278A18.512,18.512,0,0,0,36.55,113.789l2.962-13.427a27.613,27.613,0,0,0,10.553-8.64H75.714a27.785,27.785,0,0,0,12.9,9.608l2.748,12.46a18.633,18.633,0,0,0,18.075,14.539h0a18.593,18.593,0,0,0,3.694-.372,15.208,15.208,0,0,0,15.072-19.15Z"/>
        <path id="el_Nu-ptJ8cGJ" data-name="Path 5" d="M5.736,0A5.736,5.736,0,1,1,0,5.736,5.736,5.736,0,0,1,5.736,0Z"/>
        <path id="el_iJbLZnJx7i" data-name="Path 2" d="M5.736,0A5.736,5.736,0,1,1,0,5.736,5.736,5.736,0,0,1,5.736,0Z"/>
        <path id="el_KminRgEUFf" data-name="Path 3" d="M5.736,0A5.736,5.736,0,1,1,0,5.736,5.736,5.736,0,0,1,5.736,0Z"/>
        <path id="el_56Uvq8c3Ak" data-name="Path 4" d="M5.736,0A5.736,5.736,0,1,1,0,5.736,5.736,5.736,0,0,1,5.736,0Z"/>
        <path id="el_HFQ4tDmXXE" data-name="gamepad" d="M44.513,80.317a2.955,2.955,0,0,1-2.954,2.952H34.827V90a2.955,2.955,0,0,1-2.955,2.956H26.21a2.955,2.955,0,0,1-2.955-2.954V83.269H16.523a2.954,2.954,0,0,1-2.955-2.954v-5.66A2.955,2.955,0,0,1,16.523,71.7h6.733V64.969a2.955,2.955,0,0,1,2.955-2.955h5.662a2.955,2.955,0,0,1,2.955,2.955V71.7H41.56a2.955,2.955,0,0,1,2.955,2.955v5.663Z"/>
        <path id="el_z5eKB_I9Tf" data-name="Path 1" d="M1.36-8.99A6.442,6.442,0,0,1,1.9-11.609a6.945,6.945,0,0,1,1.454-2.139A6.844,6.844,0,0,1,5.49-15.2a6.478,6.478,0,0,1,2.605-.529,6.564,6.564,0,0,1,2.626.529,6.738,6.738,0,0,1,2.139,1.447,6.8,6.8,0,0,1,1.433,2.139,6.589,6.589,0,0,1,.522,2.619,6.6,6.6,0,0,1-.522,2.612A6.783,6.783,0,0,1,12.86-4.231a6.738,6.738,0,0,1-2.139,1.447,6.563,6.563,0,0,1-2.626.529,6.462,6.462,0,0,1-1.941-.289,7,7,0,0,1-1.73-.812V.753a1.815,1.815,0,0,1-.106.628,1.46,1.46,0,0,1-.3.5,1.5,1.5,0,0,1-.473.339,1.448,1.448,0,0,1-.618.127,1.462,1.462,0,0,1-.607-.127,1.648,1.648,0,0,1-.494-.339,1.624,1.624,0,0,1-.339-.5A1.545,1.545,0,0,1,1.36.753Zm3.064,0a3.543,3.543,0,0,0,.289,1.419A3.73,3.73,0,0,0,5.508-6.4,3.753,3.753,0,0,0,6.672-5.6,3.53,3.53,0,0,0,8.1-5.315,3.578,3.578,0,0,0,9.532-5.6,3.646,3.646,0,0,0,10.7-6.4a3.691,3.691,0,0,0,.777-1.172,3.618,3.618,0,0,0,.282-1.419,3.655,3.655,0,0,0-.282-1.433,3.609,3.609,0,0,0-.777-1.165,3.706,3.706,0,0,0-1.165-.784,3.578,3.578,0,0,0-1.437-.289,3.543,3.543,0,0,0-1.419.289,3.8,3.8,0,0,0-1.172.784,3.646,3.646,0,0,0-.794,1.165A3.578,3.578,0,0,0,4.424-8.99Zm17.155,3.5a1.462,1.462,0,0,1,.607.127,1.427,1.427,0,0,1,.48.346,1.662,1.662,0,0,1,.311.5,1.582,1.582,0,0,1,.113.593,1.454,1.454,0,0,1-.427,1.073,1.472,1.472,0,0,1-1.084.424,4.95,4.95,0,0,1-1.8-.325,4.665,4.665,0,0,1-1.475-.9,4.178,4.178,0,0,1-1-1.4,4.7,4.7,0,0,1-.4-1.807V-19.085a1.536,1.536,0,0,1,.12-.607,1.589,1.589,0,0,1,.318-.487,1.482,1.482,0,0,1,.466-.325,1.4,1.4,0,0,1,.579-.12A1.536,1.536,0,0,1,19-20.5a1.7,1.7,0,0,1,.5.325,1.5,1.5,0,0,1,.346.487,1.462,1.462,0,0,1,.127.607V-6.956a1.335,1.335,0,0,0,.452,1.1,1.777,1.777,0,0,0,1.158.367Zm2.626-3.5a6.442,6.442,0,0,1,.537-2.619,6.945,6.945,0,0,1,1.451-2.139A6.844,6.844,0,0,1,28.332-15.2a6.478,6.478,0,0,1,2.605-.529,6.564,6.564,0,0,1,2.626.529A6.738,6.738,0,0,1,35.7-13.748a6.8,6.8,0,0,1,1.433,2.139,6.589,6.589,0,0,1,.529,2.619v5a1.536,1.536,0,0,1-.12.607,1.548,1.548,0,0,1-.332.494,1.624,1.624,0,0,1-.5.339,1.511,1.511,0,0,1-.618.127,1.388,1.388,0,0,1-.932-.325,1.559,1.559,0,0,1-.508-.819,6.932,6.932,0,0,1-1.744.96,5.551,5.551,0,0,1-1.97.353,6.478,6.478,0,0,1-2.605-.529,6.844,6.844,0,0,1-2.143-1.447,6.921,6.921,0,0,1-1.451-2.146,6.454,6.454,0,0,1-.537-2.612Zm3.064,0a3.543,3.543,0,0,0,.289,1.419A3.73,3.73,0,0,0,28.353-6.4a3.753,3.753,0,0,0,1.165.794,3.53,3.53,0,0,0,1.426.289,3.578,3.578,0,0,0,1.426-.293A3.646,3.646,0,0,0,33.535-6.4a3.691,3.691,0,0,0,.777-1.172,3.618,3.618,0,0,0,.282-1.419,3.655,3.655,0,0,0-.282-1.433,3.608,3.608,0,0,0-.777-1.165,3.706,3.706,0,0,0-1.165-.784,3.578,3.578,0,0,0-1.43-.286,3.543,3.543,0,0,0-1.419.289,3.8,3.8,0,0,0-1.172.784,3.646,3.646,0,0,0-.794,1.165,3.578,3.578,0,0,0-.286,1.433Zm16.082.24A3.4,3.4,0,0,0,43.616-7.4a3.359,3.359,0,0,0,.734,1.087,3.385,3.385,0,0,0,1.1.72,3.53,3.53,0,0,0,1.355.265A3.322,3.322,0,0,0,48.156-5.6a3.4,3.4,0,0,0,1.087-.748,3.567,3.567,0,0,0,.727-1.108,3.485,3.485,0,0,0,.265-1.37v-5.2a1.381,1.381,0,0,1,.127-.586A1.677,1.677,0,0,1,50.7-15.1a1.528,1.528,0,0,1,.5-.332,1.552,1.552,0,0,1,.6-.12,1.436,1.436,0,0,1,.593.12,1.509,1.509,0,0,1,.473.332,1.529,1.529,0,0,1,.318.487,1.529,1.529,0,0,1,.113.586v5.249a6.317,6.317,0,0,1-.381,2.2,6.671,6.671,0,0,1-1.045,1.871A6.55,6.55,0,0,1,50.3-3.285a6.328,6.328,0,0,1-1.991.847V.809a1.536,1.536,0,0,1-.12.607,1.468,1.468,0,0,1-.332.487,1.634,1.634,0,0,1-.487.325,1.451,1.451,0,0,1-.586.12A1.5,1.5,0,0,1,45.243.809V-2.456a6.408,6.408,0,0,1-1.977-.861A6.663,6.663,0,0,1,41.7-4.743,6.562,6.562,0,0,1,40.665-6.6a6.323,6.323,0,0,1-.378-2.174V-14.03a1.451,1.451,0,0,1,.12-.586,1.634,1.634,0,0,1,.325-.487,1.468,1.468,0,0,1,.487-.332,1.5,1.5,0,0,1,.593-.12,1.5,1.5,0,0,1,.593.12,1.548,1.548,0,0,1,.494.332,1.57,1.57,0,0,1,.332.487,1.451,1.451,0,0,1,.12.586Z"/>
      </g>
    </g>
  </g>
</svg>